<svg width="244" height="48" viewBox="0 0 244 48" fill="none" xmlns="http://www.w3.org/2000/svg">
<rect width="244" height="48" rx="4" fill="#14A800"/>
<path d="M31.5 20.475L30.525 19.68V17.055C30.5332 16.9585 30.5212 16.8613 30.4899 16.7696C30.4586 16.6779 30.4085 16.5937 30.343 16.5223C30.2774 16.4509 30.1977 16.394 30.109 16.355C30.0203 16.316 29.9244 16.2959 29.8275 16.2959C29.7306 16.2959 29.6347 16.316 29.546 16.355C29.4573 16.394 29.3776 16.4509 29.3121 16.5223C29.2465 16.5937 29.1964 16.6779 29.1651 16.7696C29.1338 16.8613 29.1218 16.9585 29.13 17.055V18.52L26.605 16.475C25.9799 15.9641 25.1974 15.685 24.39 15.685C23.5826 15.685 22.8001 15.9641 22.175 16.475L17.28 20.475C16.8798 20.7998 16.5571 21.2098 16.3357 21.6752C16.1142 22.1406 15.9995 22.6496 16 23.165V28.815C16 29.7433 16.3688 30.6335 17.0251 31.2899C17.6815 31.9463 18.5717 32.315 19.5 32.315H29.285C30.2133 32.315 31.1035 31.9463 31.7599 31.2899C32.4163 30.6335 32.785 29.7433 32.785 28.815V23.145C32.7819 22.6326 32.665 22.1273 32.4428 21.6655C32.2206 21.2038 31.8985 20.7971 31.5 20.475ZM22.295 30.89V26.05C22.3213 25.5114 22.5538 25.0036 22.9442 24.6318C23.3347 24.2599 23.8533 24.0525 24.3925 24.0525C24.9317 24.0525 25.4503 24.2599 25.8408 24.6318C26.2312 25.0036 26.4637 25.5114 26.49 26.05V30.89H22.295ZM31.39 28.795C31.3887 29.3502 31.1675 29.8824 30.7749 30.275C30.3823 30.6676 29.8502 30.8887 29.295 30.89H27.89V26.05C27.89 25.1218 27.5213 24.2315 26.8649 23.5752C26.2085 22.9188 25.3183 22.55 24.39 22.55C23.4617 22.55 22.5715 22.9188 21.9151 23.5752C21.2588 24.2315 20.89 25.1218 20.89 26.05V30.89H19.49C18.9339 30.89 18.4005 30.6695 18.0068 30.2767C17.6132 29.884 17.3913 29.3511 17.39 28.795V23.145C17.3897 22.834 17.4586 22.5268 17.5918 22.2457C17.725 21.9646 17.9191 21.7167 18.16 21.52L23.055 17.52C23.4298 17.2164 23.8976 17.0507 24.38 17.0507C24.8624 17.0507 25.3302 17.2164 25.705 17.52L30.6 21.52C30.8446 21.7148 31.0425 21.9618 31.1792 22.243C31.3159 22.5242 31.3879 22.8324 31.39 23.145V28.795Z" fill="white"/>
<path d="M53.8306 29.5H50.0636V17.8636H53.9499C55.0901 17.8636 56.0692 18.0966 56.8874 18.5625C57.7056 19.0246 58.3325 19.6894 58.7681 20.5568C59.2075 21.4205 59.4272 22.4564 59.4272 23.6648C59.4272 24.8769 59.2056 25.9186 58.7624 26.7898C58.323 27.661 57.6867 28.3314 56.8533 28.8011C56.02 29.267 55.0124 29.5 53.8306 29.5ZM51.8192 27.9659H53.734C54.6204 27.9659 55.3571 27.7992 55.9442 27.4659C56.5314 27.1288 56.9708 26.642 57.2624 26.0057C57.5541 25.3655 57.6999 24.5852 57.6999 23.6648C57.6999 22.7519 57.5541 21.9773 57.2624 21.3409C56.9746 20.7045 56.5446 20.2216 55.9727 19.892C55.4007 19.5625 54.6905 19.3977 53.842 19.3977H51.8192V27.9659ZM64.0138 29.6932C63.4608 29.6932 62.9608 29.5909 62.5138 29.3864C62.0669 29.178 61.7127 28.8769 61.4513 28.483C61.1938 28.089 61.065 27.6061 61.065 27.0341C61.065 26.5417 61.1597 26.1364 61.3491 25.8182C61.5385 25.5 61.7942 25.2481 62.1161 25.0625C62.4381 24.8769 62.7979 24.7367 63.1957 24.642C63.5934 24.5473 63.9987 24.4754 64.4116 24.4261C64.9343 24.3655 65.3585 24.3163 65.6843 24.2784C66.0101 24.2367 66.2468 24.1705 66.3945 24.0795C66.5423 23.9886 66.6161 23.8409 66.6161 23.6364V23.5966C66.6161 23.1004 66.476 22.7159 66.1957 22.4432C65.9192 22.1705 65.5063 22.0341 64.957 22.0341C64.3851 22.0341 63.9343 22.161 63.6048 22.4148C63.279 22.6648 63.0536 22.9432 62.9286 23.25L61.332 22.8864C61.5214 22.3561 61.7979 21.928 62.1616 21.6023C62.529 21.2727 62.9513 21.0341 63.4286 20.8864C63.9059 20.7348 64.4078 20.6591 64.9343 20.6591C65.2828 20.6591 65.6521 20.7008 66.0423 20.7841C66.4362 20.8636 66.8036 21.0114 67.1445 21.2273C67.4892 21.4432 67.7714 21.7519 67.9911 22.1534C68.2108 22.5511 68.3207 23.0682 68.3207 23.7045V29.5H66.6616V28.3068H66.5934C66.4835 28.5265 66.3188 28.7424 66.0991 28.9545C65.8794 29.1667 65.5972 29.3428 65.2525 29.483C64.9078 29.6231 64.4949 29.6932 64.0138 29.6932ZM64.3832 28.3295C64.8529 28.3295 65.2544 28.2367 65.5877 28.0511C65.9248 27.8655 66.1805 27.6231 66.3548 27.3239C66.5328 27.0208 66.6218 26.697 66.6218 26.3523V25.2273C66.5612 25.2879 66.4438 25.3447 66.2695 25.3977C66.0991 25.447 65.904 25.4905 65.6843 25.5284C65.4646 25.5625 65.2506 25.5947 65.0423 25.625C64.8339 25.6515 64.6597 25.6742 64.5195 25.6932C64.19 25.7348 63.8888 25.8049 63.6161 25.9034C63.3472 26.0019 63.1313 26.1439 62.9684 26.3295C62.8093 26.5114 62.7298 26.7538 62.7298 27.0568C62.7298 27.4773 62.8851 27.7955 63.1957 28.0114C63.5063 28.2235 63.9021 28.3295 64.3832 28.3295ZM77.1232 22.9034L75.5835 23.1761C75.5191 22.9792 75.4168 22.7917 75.2766 22.6136C75.1403 22.4356 74.9547 22.2898 74.7198 22.1761C74.485 22.0625 74.1914 22.0057 73.8391 22.0057C73.3581 22.0057 72.9566 22.1136 72.6346 22.3295C72.3126 22.5417 72.1516 22.8163 72.1516 23.1534C72.1516 23.4451 72.2596 23.6799 72.4755 23.858C72.6914 24.036 73.0399 24.1818 73.521 24.2955L74.9073 24.6136C75.7103 24.7992 76.3088 25.0852 76.7028 25.4716C77.0967 25.858 77.2937 26.3598 77.2937 26.9773C77.2937 27.5 77.1422 27.9659 76.8391 28.375C76.5399 28.7803 76.1213 29.0985 75.5835 29.3295C75.0494 29.5606 74.43 29.6761 73.7255 29.6761C72.7482 29.6761 71.9509 29.4678 71.3335 29.0511C70.716 28.6307 70.3372 28.0341 70.1971 27.2614L71.8391 27.0114C71.9414 27.4394 72.1516 27.7633 72.4698 27.983C72.788 28.1989 73.2028 28.3068 73.7141 28.3068C74.271 28.3068 74.716 28.1913 75.0494 27.9602C75.3827 27.7254 75.5494 27.4394 75.5494 27.1023C75.5494 26.8295 75.4471 26.6004 75.2425 26.4148C75.0418 26.2292 74.7331 26.089 74.3164 25.9943L72.8391 25.6705C72.0247 25.4848 71.4225 25.1894 71.0323 24.7841C70.646 24.3788 70.4528 23.8655 70.4528 23.2443C70.4528 22.7292 70.5967 22.2784 70.8846 21.892C71.1725 21.5057 71.5702 21.2045 72.0778 20.9886C72.5853 20.7689 73.1668 20.6591 73.8221 20.6591C74.7653 20.6591 75.5077 20.8636 76.0494 21.2727C76.591 21.678 76.949 22.2216 77.1232 22.9034ZM80.8604 24.3182V29.5H79.1616V17.8636H80.8377V22.1932H80.9457C81.1502 21.7235 81.4627 21.3504 81.8832 21.0739C82.3036 20.7973 82.8529 20.6591 83.5309 20.6591C84.1294 20.6591 84.6521 20.7822 85.0991 21.0284C85.5498 21.2746 85.8983 21.642 86.1445 22.1307C86.3945 22.6155 86.5195 23.2216 86.5195 23.9489V29.5H84.8207V24.1534C84.8207 23.5133 84.6559 23.017 84.3263 22.6648C83.9968 22.3087 83.5385 22.1307 82.9513 22.1307C82.5498 22.1307 82.19 22.2159 81.8718 22.3864C81.5574 22.5568 81.3093 22.8068 81.1275 23.1364C80.9495 23.4621 80.8604 23.8561 80.8604 24.3182ZM88.9229 29.5V17.8636H90.6218V22.1875H90.7241C90.8226 22.0057 90.9646 21.7955 91.1502 21.5568C91.3358 21.3182 91.5934 21.1098 91.9229 20.9318C92.2525 20.75 92.6881 20.6591 93.2298 20.6591C93.9343 20.6591 94.5631 20.8371 95.1161 21.1932C95.6692 21.5492 96.1029 22.0625 96.4173 22.733C96.7354 23.4034 96.8945 24.2102 96.8945 25.1534C96.8945 26.0966 96.7373 26.9053 96.4229 27.5795C96.1085 28.25 95.6767 28.767 95.1275 29.1307C94.5782 29.4905 93.9513 29.6705 93.2468 29.6705C92.7165 29.6705 92.2828 29.5814 91.9457 29.4034C91.6123 29.2254 91.351 29.017 91.1616 28.7784C90.9722 28.5398 90.8263 28.3277 90.7241 28.142H90.582V29.5H88.9229ZM90.5877 25.1364C90.5877 25.75 90.6767 26.2879 90.8548 26.75C91.0328 27.2121 91.2904 27.5739 91.6275 27.8352C91.9646 28.0928 92.3775 28.2216 92.8661 28.2216C93.3737 28.2216 93.7979 28.0871 94.1388 27.8182C94.4798 27.5455 94.7373 27.1761 94.9116 26.7102C95.0896 26.2443 95.1786 25.7197 95.1786 25.1364C95.1786 24.5606 95.0915 24.0436 94.9173 23.5852C94.7468 23.1269 94.4892 22.7652 94.1445 22.5C93.8036 22.2348 93.3775 22.1023 92.8661 22.1023C92.3737 22.1023 91.957 22.2292 91.6161 22.483C91.279 22.7367 91.0233 23.0909 90.8491 23.5455C90.6748 24 90.5877 24.5303 90.5877 25.1364ZM102.478 29.6761C101.66 29.6761 100.946 29.4886 100.336 29.1136C99.7264 28.7386 99.253 28.214 98.9158 27.5398C98.5787 26.8655 98.4102 26.0777 98.4102 25.1761C98.4102 24.2708 98.5787 23.4792 98.9158 22.8011C99.253 22.1231 99.7264 21.5966 100.336 21.2216C100.946 20.8466 101.66 20.6591 102.478 20.6591C103.297 20.6591 104.011 20.8466 104.62 21.2216C105.23 21.5966 105.704 22.1231 106.041 22.8011C106.378 23.4792 106.547 24.2708 106.547 25.1761C106.547 26.0777 106.378 26.8655 106.041 27.5398C105.704 28.214 105.23 28.7386 104.62 29.1136C104.011 29.4886 103.297 29.6761 102.478 29.6761ZM102.484 28.25C103.014 28.25 103.454 28.1098 103.802 27.8295C104.151 27.5492 104.408 27.1761 104.575 26.7102C104.745 26.2443 104.831 25.7311 104.831 25.1705C104.831 24.6136 104.745 24.1023 104.575 23.6364C104.408 23.1667 104.151 22.7898 103.802 22.5057C103.454 22.2216 103.014 22.0795 102.484 22.0795C101.95 22.0795 101.507 22.2216 101.154 22.5057C100.806 22.7898 100.547 23.1667 100.376 23.6364C100.209 24.1023 100.126 24.6136 100.126 25.1705C100.126 25.7311 100.209 26.2443 100.376 26.7102C100.547 27.1761 100.806 27.5492 101.154 27.8295C101.507 28.1098 101.95 28.25 102.484 28.25ZM110.983 29.6932C110.43 29.6932 109.93 29.5909 109.483 29.3864C109.036 29.178 108.681 28.8769 108.42 28.483C108.163 28.089 108.034 27.6061 108.034 27.0341C108.034 26.5417 108.128 26.1364 108.318 25.8182C108.507 25.5 108.763 25.2481 109.085 25.0625C109.407 24.8769 109.767 24.7367 110.164 24.642C110.562 24.5473 110.967 24.4754 111.38 24.4261C111.903 24.3655 112.327 24.3163 112.653 24.2784C112.979 24.2367 113.216 24.1705 113.363 24.0795C113.511 23.9886 113.585 23.8409 113.585 23.6364V23.5966C113.585 23.1004 113.445 22.7159 113.164 22.4432C112.888 22.1705 112.475 22.0341 111.926 22.0341C111.354 22.0341 110.903 22.161 110.574 22.4148C110.248 22.6648 110.022 22.9432 109.897 23.25L108.301 22.8864C108.49 22.3561 108.767 21.928 109.13 21.6023C109.498 21.2727 109.92 21.0341 110.397 20.8864C110.875 20.7348 111.377 20.6591 111.903 20.6591C112.252 20.6591 112.621 20.7008 113.011 20.7841C113.405 20.8636 113.772 21.0114 114.113 21.2273C114.458 21.4432 114.74 21.7519 114.96 22.1534C115.18 22.5511 115.289 23.0682 115.289 23.7045V29.5H113.63V28.3068H113.562C113.452 28.5265 113.288 28.7424 113.068 28.9545C112.848 29.1667 112.566 29.3428 112.221 29.483C111.877 29.6231 111.464 29.6932 110.983 29.6932ZM111.352 28.3295C111.822 28.3295 112.223 28.2367 112.556 28.0511C112.894 27.8655 113.149 27.6231 113.324 27.3239C113.502 27.0208 113.591 26.697 113.591 26.3523V25.2273C113.53 25.2879 113.413 25.3447 113.238 25.3977C113.068 25.447 112.873 25.4905 112.653 25.5284C112.433 25.5625 112.219 25.5947 112.011 25.625C111.803 25.6515 111.628 25.6742 111.488 25.6932C111.159 25.7348 110.858 25.8049 110.585 25.9034C110.316 26.0019 110.1 26.1439 109.937 26.3295C109.778 26.5114 109.699 26.7538 109.699 27.0568C109.699 27.4773 109.854 27.7955 110.164 28.0114C110.475 28.2235 110.871 28.3295 111.352 28.3295ZM117.552 29.5V20.7727H119.194V22.1591H119.285C119.444 21.6894 119.725 21.3201 120.126 21.0511C120.531 20.7784 120.99 20.642 121.501 20.642C121.607 20.642 121.732 20.6458 121.876 20.6534C122.024 20.661 122.139 20.6705 122.223 20.6818V22.3068C122.154 22.2879 122.033 22.267 121.859 22.2443C121.685 22.2178 121.511 22.2045 121.336 22.2045C120.935 22.2045 120.577 22.2898 120.262 22.4602C119.952 22.6269 119.706 22.8598 119.524 23.1591C119.342 23.4545 119.251 23.7917 119.251 24.1705V29.5H117.552ZM126.647 29.6705C125.943 29.6705 125.314 29.4905 124.761 29.1307C124.212 28.767 123.78 28.25 123.466 27.5795C123.155 26.9053 123 26.0966 123 25.1534C123 24.2102 123.157 23.4034 123.471 22.733C123.789 22.0625 124.225 21.5492 124.778 21.1932C125.331 20.8371 125.958 20.6591 126.659 20.6591C127.2 20.6591 127.636 20.75 127.966 20.9318C128.299 21.1098 128.556 21.3182 128.738 21.5568C128.924 21.7955 129.068 22.0057 129.17 22.1875H129.272V17.8636H130.971V29.5H129.312V28.142H129.17C129.068 28.3277 128.92 28.5398 128.727 28.7784C128.538 29.017 128.276 29.2254 127.943 29.4034C127.609 29.5814 127.178 29.6705 126.647 29.6705ZM127.022 28.2216C127.511 28.2216 127.924 28.0928 128.261 27.8352C128.602 27.5739 128.859 27.2121 129.034 26.75C129.212 26.2879 129.301 25.75 129.301 25.1364C129.301 24.5303 129.214 24 129.039 23.5455C128.865 23.0909 128.609 22.7367 128.272 22.483C127.935 22.2292 127.519 22.1023 127.022 22.1023C126.511 22.1023 126.085 22.2348 125.744 22.5C125.403 22.7652 125.145 23.1269 124.971 23.5852C124.801 24.0436 124.716 24.5606 124.716 25.1364C124.716 25.7197 124.803 26.2443 124.977 26.7102C125.151 27.1761 125.409 27.5455 125.75 27.8182C126.094 28.0871 126.519 28.2216 127.022 28.2216Z" fill="white"/>
</svg>
